<svg xmlns="http://www.w3.org/2000/svg"  viewBox="0 0 32 32" width="64px" height="64px"><path d="M 8 4 L 8 6 L 24 6 L 24 4 L 8 4 z M 24 6 L 24 8 L 26 8 L 26 6 L 24 6 z M 26 8 L 26 24 L 28 24 L 28 8 L 26 8 z M 26 24 L 24 24 L 24 26 L 26 26 L 26 24 z M 24 26 L 8 26 L 8 28 L 24 28 L 24 26 z M 8 26 L 8 24 L 6 24 L 6 26 L 8 26 z M 6 24 L 6 8 L 4 8 L 4 24 L 6 24 z M 6 8 L 8 8 L 8 6 L 6 6 L 6 8 z M 21 9 L 21 11 L 23 11 L 23 9 L 21 9 z M 13 11 L 13 13 L 19 13 L 19 11 L 13 11 z M 19 13 L 19 19 L 21 19 L 21 13 L 19 13 z M 19 19 L 13 19 L 13 21 L 19 21 L 19 19 z M 13 19 L 13 13 L 11 13 L 11 19 L 13 19 z"/></svg>