<svg xmlns="http://www.w3.org/2000/svg"  viewBox="0 0 32 32" width="64px" height="64px"><path d="M 16 4 L 16 14 L 18 14 L 18 6 L 20 6 L 20 4 L 16 4 z M 20 6 L 20 8 L 23 8 L 23 6 L 20 6 z M 23 8 L 23 12 L 25 12 L 25 8 L 23 8 z M 25 12 L 25 22 L 27 22 L 27 12 L 25 12 z M 25 22 L 23 22 L 23 24 L 25 24 L 25 22 z M 23 24 L 20 24 L 20 26 L 23 26 L 23 24 z M 20 26 L 12 26 L 12 28 L 20 28 L 20 26 z M 12 26 L 12 24 L 9 24 L 9 26 L 12 26 z M 9 24 L 9 22 L 7 22 L 7 24 L 9 24 z M 7 22 L 7 14 L 5 14 L 5 22 L 7 22 z M 7 14 L 9 14 L 9 10 L 7 10 L 7 14 z M 9 10 L 11 10 L 11 8 L 9 8 L 9 10 z M 11 10 L 11 16 L 16 16 L 16 14 L 13 14 L 13 10 L 11 10 z"/></svg>