<svg xmlns="http://www.w3.org/2000/svg"  viewBox="0 0 32 32" width="64px" height="64px"><path d="M 10 4 L 10 6 L 22 6 L 22 4 L 10 4 z M 22 6 L 22 8 L 24 8 L 24 6 L 22 6 z M 24 8 L 24 10 L 26 10 L 26 8 L 24 8 z M 26 10 L 26 22 L 28 22 L 28 10 L 26 10 z M 26 22 L 24 22 L 24 24 L 26 24 L 26 22 z M 24 24 L 22 24 L 22 26 L 24 26 L 24 24 z M 22 26 L 17 26 L 17 19 L 19 19 L 19 17 L 17 17 L 17 13 L 15 13 L 15 17 L 13 17 L 13 19 L 15 19 L 15 26 L 10 26 L 10 28 L 22 28 L 22 26 z M 10 26 L 10 24 L 8 24 L 8 26 L 10 26 z M 8 24 L 8 22 L 6 22 L 6 24 L 8 24 z M 6 22 L 6 10 L 4 10 L 4 22 L 6 22 z M 6 10 L 8 10 L 8 8 L 6 8 L 6 10 z M 8 8 L 10 8 L 10 6 L 8 6 L 8 8 z M 17 13 L 21 13 L 21 11 L 17 11 L 17 13 z"/></svg>