<svg xmlns="http://www.w3.org/2000/svg"  viewBox="0 0 32 32" width="64px" height="64px"><path d="M 17 2 L 17 6 L 19 6 L 19 4 L 21 4 L 21 2 L 17 2 z M 21 4 L 21 6 L 24 6 L 24 7 L 28 7 L 28 3 L 24 3 L 24 4 L 21 4 z M 17 6 L 15 6 L 15 9 L 10 9 L 10 11 L 22 11 L 22 9 L 17 9 L 17 6 z M 22 11 L 22 13 L 25 13 L 25 16 L 27 16 L 27 11 L 22 11 z M 27 16 L 27 22 L 29 22 L 29 16 L 27 16 z M 27 22 L 25 22 L 25 24 L 27 24 L 27 22 z M 25 24 L 23 24 L 23 26 L 25 26 L 25 24 z M 23 26 L 9 26 L 9 28 L 23 28 L 23 26 z M 9 26 L 9 24 L 7 24 L 7 26 L 9 26 z M 7 24 L 7 22 L 5 22 L 5 24 L 7 24 z M 5 22 L 5 16 L 3 16 L 3 22 L 5 22 z M 5 16 L 7 16 L 7 13 L 10 13 L 10 11 L 5 11 L 5 16 z M 10 16 L 10 19 L 13 19 L 13 16 L 10 16 z M 19 16 L 19 19 L 22 19 L 22 16 L 19 16 z M 13 21 L 13 23 L 19 23 L 19 21 L 13 21 z"/></svg>