<svg xmlns="http://www.w3.org/2000/svg"  viewBox="0 0 32 32" width="64px" height="64px"><path d="M 7 6 L 7 8 L 25 8 L 25 6 L 7 6 z M 25 8 L 25 10 L 27 10 L 27 8 L 25 8 z M 27 10 L 27 22 L 29 22 L 29 10 L 27 10 z M 27 22 L 25 22 L 25 24 L 27 24 L 27 22 z M 25 24 L 7 24 L 7 26 L 25 26 L 25 24 z M 7 24 L 7 22 L 5 22 L 5 24 L 7 24 z M 5 22 L 5 10 L 3 10 L 3 22 L 5 22 z M 5 10 L 7 10 L 7 8 L 5 8 L 5 10 z M 13 12 L 13 20 L 15 20 L 15 19 L 17 19 L 17 18 L 19 18 L 19 17 L 21 17 L 21 15 L 19 15 L 19 14 L 17 14 L 17 13 L 15 13 L 15 12 L 13 12 z"/></svg>